<?xml version="1.0" encoding="UTF-8"?>
<!DOCTYPE svg PUBLIC "-//W3C//DTD SVG 1.1//EN" "http://www.w3.org/Graphics/SVG/1.1/DTD/svg11.dtd">
<!-- Creator: CorelDRAW X8 -->
<svg xmlns="http://www.w3.org/2000/svg" xml:space="preserve" width="50.2024mm" height="52.3108mm" version="1.1" style="shape-rendering:geometricPrecision; text-rendering:geometricPrecision; image-rendering:optimizeQuality; fill-rule:evenodd; clip-rule:evenodd"
viewBox="0 0 364 380"
 xmlns:xlink="http://www.w3.org/1999/xlink">
 <defs>
  <style type="text/css">
   <![CDATA[
    .fil0 {fill:#FEFEFE;fill-rule:nonzero}
   ]]>
  </style>
 </defs>
 <g id="图层_x0020_1">
  <metadata id="CorelCorpID_0Corel-Layer"/>
  <path class="fil0" d="M364 37l0 46c-2,5 -5,11 -8,16l-60 0c4,-6 8,-11 12,-17l-87 0c3,6 7,11 11,17l-83 0c22,-30 41,-63 56,-99l51 6c-5,11 -10,21 -15,31l123 0zm-220 244c0,13 -1,25 -1,36 -1,21 -7,36 -16,47 -8,8 -23,13 -45,13 -13,0 -29,-1 -48,-2 -3,-16 -5,-33 -8,-50 19,2 37,3 51,3 13,1 20,-5 21,-17 0,-10 1,-20 1,-30l45 0zm-129 -182l2 -20 46 0 -2 20 -46 0zm70 0l3 -36 -81 0 0 -46 132 0 -6 82 -48 0zm86 281l0 -99 47 0 0 34 91 0 0 -34 48 0 0 99 -48 0 0 -17 -91 0 0 17 -47 0zm-84 -99c0,3 0,6 0,9 -30,3 -58,7 -85,12l-2 -21 87 0z"/>
  <path class="fil0" d="M13 210l56 0c1,-3 1,-7 2,-11l-49 0 0 -15 123 0 0 15 -53 0c0,4 0,8 -1,11l64 0 0 15 -51 0c12,10 30,15 53,17 -4,9 -8,16 -10,20 -30,-4 -51,-15 -65,-34 -9,17 -30,29 -61,35 -4,-9 -7,-15 -11,-20 25,-3 42,-9 51,-18l-48 0 0 -15zm13 -88l117 0 0 54 -117 0 0 -54zm97 14l-77 0 0 7 77 0 0 -7zm0 26l0 -7 -77 0 0 7 77 0zm146 -42l24 -3c1,4 3,9 4,16l54 0 0 29 -21 0 0 -10 -92 0 0 10 -21 0 0 -29 56 0c-2,-5 -3,-9 -4,-13zm68 45l0 18 -38 0 0 15 55 0 0 18 -55 0 0 17c0,17 -7,26 -20,27 -8,1 -18,1 -31,1 -2,-8 -4,-16 -5,-22 7,0 14,0 22,0 8,1 12,-4 12,-12l0 -11 -63 0 0 -18 63 0 0 -15 -46 0 0 -18 106 0z"/>
 </g>
</svg>
